<?xml version="1.0" encoding="UTF-8" standalone="no"?><!DOCTYPE svg PUBLIC "-//W3C//DTD SVG 1.1//EN" "http://www.w3.org/Graphics/SVG/1.1/DTD/svg11.dtd"><svg width="100%" height="100%" viewBox="0 0 1400 600" version="1.1" xmlns="http://www.w3.org/2000/svg" xmlns:xlink="http://www.w3.org/1999/xlink" xml:space="preserve" xmlns:serif="http://www.serif.com/" style="fill-rule:evenodd;clip-rule:evenodd;stroke-linejoin:round;stroke-miterlimit:1.41421;"><rect id="Artboard4" x="0" y="0" width="1400" height="450" style="fill:none;"/><clipPath id="_clip1"><rect x="0" y="0" width="1400" height="450"/></clipPath><g clip-path="url(#_clip1)"><g><rect x="0" y="-78" width="1400" height="933.338" style="fill:#171131;fill-rule:nonzero;"/><path d="M1302.93,122.231c-61.153,4.351 -130.425,7.19 -140.43,7.696c-84.523,4.276 -169.327,5.848 -253.85,0.442c-134.673,-8.614 -265.137,-42.961 -397.479,-66.739c-164.814,-29.615 -345.981,-40.647 -511.174,-9.123l0,825.831l1400,0c0,0 0,-771.79 0,-771.803c0,5.31 -45.659,10.039 -97.067,13.696Z" style="fill:#1a1534;fill-rule:nonzero;"/><path d="M316.105,129.22c69.048,33.552 138.795,63.501 214.559,67.081c141.358,6.677 289.918,-15.432 419.411,-80.383c73.435,-36.83 147.897,-75.167 227.865,-89.604c37.222,-6.718 75.806,-8.038 113.233,-2.823c11.872,1.656 108.827,19.274 108.827,34.274l0,762.573l-1400,0l0,-794.272c30.1,0.582 60.443,3.408 91.588,11.213c78.324,16.432 151.024,56.228 224.517,91.941Z" style="fill:#1f1a38;fill-rule:nonzero;"/><path d="M1400,759.672l0,-615.794c-30.091,0.504 -60.443,2.956 -91.579,9.725c-78.326,14.25 -151.033,-29.473 -224.524,1.499c-69.049,29.096 -138.788,133.304 -214.552,136.409c-141.358,5.79 -289.918,-13.383 -419.411,-69.709c-73.429,-31.939 -147.889,-65.189 -227.872,-77.708c-37.216,-5.827 -75.8,-6.97 -113.229,-2.448c-11.872,1.434 -108.833,16.714 -108.833,29.723l0,588.303l1400,0Z" style="fill:#241e3c;fill-rule:nonzero;"/><g><clipPath id="_clip2"><rect x="0" y="-78" width="1400" height="933.338"/></clipPath><g clip-path="url(#_clip2)"><g><path d="M1003.6,535.577c-2.259,0 -4.461,0.233 -6.589,0.676c-7.523,-21.969 -27.31,-38.252 -51.184,-40.675c1.698,-4.336 2.65,-9.057 2.65,-13.998c0,-21.073 -17.08,-38.157 -38.157,-38.157c-0.334,0 -0.671,0.019 -1.024,0.026c7.933,-9.589 12.691,-21.889 12.691,-35.306c0,-30.625 -24.825,-55.454 -55.438,-55.454c-21.038,0 -39.329,11.708 -48.732,28.96c-8.752,-39.674 -44.117,-69.356 -86.421,-69.356c-45.92,0 -83.67,34.972 -88.074,79.731c-6.753,-9.154 -17.614,-15.098 -29.863,-15.098c-20.487,0 -37.091,16.608 -37.091,37.095c0,6.371 1.608,12.365 4.436,17.601c-3.76,-0.689 -7.633,-1.051 -11.591,-1.051c-33.757,0 -61.391,26.193 -63.692,59.366c-8.023,-8.68 -19.5,-14.118 -32.253,-14.118c-24.254,0 -43.914,19.66 -43.914,43.916c0,24.255 19.66,43.915 43.914,43.915c3.022,0 5.973,-0.304 8.82,-0.887c6.584,25.15 29.458,43.709 56.672,43.709c25.626,0 47.393,-16.461 55.346,-39.378c6.68,42.262 43.269,74.578 87.41,74.578c39.953,0 73.717,-26.476 84.721,-62.838c13.153,7.748 28.482,12.198 44.851,12.198c27.304,0 51.714,-12.366 67.949,-31.8c1.717,31.98 28.187,57.385 60.592,57.385c18.648,0 35.318,-8.422 46.443,-21.663c5.059,3.272 11.069,5.18 17.528,5.18c17.827,0 32.294,-14.453 32.294,-32.28c0,-17.827 -14.467,-32.277 -32.294,-32.277Z" style="fill:#161030;fill-opacity:0.501961;fill-rule:nonzero;"/><path d="M45.218,373.635c1.931,0 3.814,0.202 5.632,0.579c6.436,-18.764 23.326,-32.672 43.723,-34.741c-1.459,-3.703 -2.269,-7.735 -2.269,-11.958c0,-17.998 14.588,-32.59 32.586,-32.59c0.295,0 0.584,0.017 0.877,0.023c-6.772,-8.19 -10.841,-18.697 -10.841,-30.155c0,-26.158 21.205,-47.365 47.367,-47.365c17.961,0 33.585,10 41.615,24.736c7.475,-33.886 37.681,-59.24 73.816,-59.24c39.219,0 71.462,29.871 75.224,68.102c5.768,-7.819 15.043,-12.895 25.506,-12.895c17.496,0 31.681,14.185 31.681,31.682c0,5.441 -1.372,10.559 -3.786,15.034c3.209,-0.588 6.517,-0.898 9.899,-0.898c28.831,0 52.434,22.376 54.399,50.706c6.855,-7.412 16.655,-12.058 27.549,-12.058c20.716,0 37.508,16.792 37.508,37.509c0,20.718 -16.792,37.509 -37.508,37.509c-2.58,0 -5.1,-0.262 -7.532,-0.756c-5.627,21.48 -25.163,37.331 -48.407,37.331c-21.885,0 -40.479,-14.059 -47.272,-33.633c-5.706,36.096 -36.958,63.696 -74.659,63.696c-34.125,0 -62.965,-22.611 -72.362,-53.669c-11.232,6.616 -24.327,10.418 -38.308,10.418c-23.322,0 -44.169,-10.563 -58.041,-27.162c-1.458,27.315 -24.065,49.014 -51.742,49.014c-15.932,0 -30.177,-7.193 -39.684,-18.501c-4.31,2.794 -9.449,4.422 -14.971,4.422c-15.226,0 -27.57,-12.342 -27.57,-27.569c0,-15.226 12.344,-27.571 27.57,-27.571Z" style="fill:#161030;fill-opacity:0.501961;fill-rule:nonzero;"/><path d="M1579.96,436.971c-2.806,-0.286 -5.566,-0.272 -8.274,0.005c-6.559,-28.215 -29.034,-50.923 -58.369,-56.953c2.68,-5.164 4.443,-10.9 5.068,-17.032c2.667,-26.15 -16.364,-49.508 -42.509,-52.175c-0.43,-0.043 -0.846,-0.066 -1.276,-0.1c11.043,-10.897 18.519,-25.557 20.217,-42.204c3.876,-38.003 -23.789,-71.953 -61.789,-75.828c-26.1,-2.662 -50.277,9.549 -64.13,29.767c-5.836,-50.339 -36.968,-0.646 -89.459,-6c-56.984,-5.812 -117.258,-58.197 -128.382,-3.21c-7.23,-12.214 -19.942,-20.963 -35.154,-22.515c-25.41,-2.591 -48.122,15.915 -50.714,41.333c-0.807,7.908 0.428,15.55 3.277,22.404c-4.575,-1.328 -9.344,-2.269 -14.251,-2.769c-41.895,-4.273 -79.499,24.733 -86.549,65.604c-8.858,-11.786 -22.41,-19.985 -38.236,-21.599c-30.096,-3.069 -56.979,18.839 -60.049,48.936c-3.07,30.098 18.837,56.981 48.933,60.05c3.75,0.383 7.45,0.379 11.057,0.019c4.987,32.038 31.029,57.965 64.796,61.409c31.79,3.242 60.893,-14.428 73.654,-41.861c2.947,53.289 44.264,98.019 99.024,103.604c49.578,5.057 94.839,-23.519 113.089,-67.25c15.335,11.278 33.803,18.743 54.106,20.813c33.89,3.457 65.741,-8.8 88.351,-30.86c-1.931,39.899 27.701,74.773 67.909,78.874c23.14,2.36 44.908,-5.979 60.4,-20.996c5.843,4.696 13.069,7.825 21.089,8.643c22.128,2.257 41.884,-13.849 44.14,-35.971c2.256,-22.119 -13.841,-41.881 -35.969,-44.138Z" style="fill:#201a39;fill-rule:nonzero;"/><path d="M-391.24,494.65c3.266,0 6.451,0.334 9.531,0.976c10.883,-31.735 39.45,-55.259 73.952,-58.759c-2.471,-6.264 -3.845,-13.083 -3.845,-20.225c0,-30.442 24.675,-55.123 55.117,-55.123c0.5,0 0.99,0.026 1.486,0.039c-11.456,-13.851 -18.34,-31.623 -18.34,-51.001c0,-44.246 35.866,-80.116 80.114,-80.116c30.382,0 56.809,16.912 70.389,41.836c12.645,-57.311 63.735,-100.194 124.85,-100.194c66.337,0 120.872,50.52 127.233,115.183c9.757,-13.224 25.445,-21.806 43.145,-21.806c29.592,0 53.584,23.992 53.584,53.581c0,9.208 -2.322,17.864 -6.408,25.429c5.427,-0.993 11.025,-1.517 16.744,-1.517c48.765,0 88.688,37.841 92.014,85.764c11.591,-12.536 28.167,-20.397 46.594,-20.397c35.036,0 63.437,28.407 63.437,63.445c0,35.043 -28.401,63.442 -63.437,63.442c-4.364,0 -8.629,-0.444 -12.742,-1.28c-9.516,36.331 -42.558,63.144 -81.876,63.144c-37.016,0 -68.464,-23.783 -79.951,-56.891c-9.653,61.055 -62.512,107.737 -126.279,107.737c-57.72,0 -106.496,-38.24 -122.391,-90.774c-18.999,11.189 -41.149,17.617 -64.794,17.617c-39.445,0 -74.71,-17.866 -98.167,-45.939c-2.469,46.203 -40.704,82.903 -87.515,82.903c-26.949,0 -51.04,-12.167 -67.12,-31.291c-7.295,4.725 -15.986,7.48 -25.325,7.48c-25.753,0 -46.63,-20.881 -46.63,-46.635c0,-25.751 20.877,-46.628 46.63,-46.628Z" style="fill:#161030;fill-rule:nonzero;"/><path d="M1007.14,640.207c-3.416,0 -6.739,0.355 -9.968,1.023c-11.368,-33.187 -41.235,-57.783 -77.318,-61.441c2.595,-6.551 4.014,-13.679 4.014,-21.144c0,-31.831 -25.798,-57.634 -57.625,-57.634c-0.522,0 -1.034,0.024 -1.549,0.037c11.965,-14.487 19.171,-33.066 19.171,-53.329c0,-46.261 -37.504,-83.763 -83.765,-83.763c-31.766,0 -59.398,17.683 -73.6,43.74c-13.221,-59.924 -66.638,-104.76 -130.54,-104.76c-69.362,0 -126.38,52.823 -133.034,120.436c-10.202,-13.828 -26.606,-22.803 -45.111,-22.803c-30.943,0 -56.022,25.083 -56.022,56.023c0,9.628 2.426,18.681 6.695,26.591c-5.676,-1.038 -11.526,-1.587 -17.505,-1.587c-50.99,0 -92.731,39.566 -96.209,89.671c-12.118,-13.109 -29.452,-21.323 -48.716,-21.323c-36.636,0 -66.331,29.697 -66.331,66.334c0,36.638 29.695,66.333 66.331,66.333c4.564,0 9.021,-0.459 13.322,-1.335c9.946,37.983 44.496,66.021 85.606,66.021c38.706,0 71.587,-24.864 83.595,-59.482c10.094,63.837 65.364,112.647 132.036,112.647c60.352,0 111.353,-39.988 127.972,-94.914c19.867,11.701 43.021,18.426 67.747,18.426c41.243,0 78.117,-18.679 102.641,-48.037c2.582,48.304 42.562,86.681 91.507,86.681c28.168,0 53.368,-12.723 70.187,-32.719c7.616,4.94 16.706,7.822 26.469,7.822c26.936,0 48.758,-21.831 48.758,-48.758c0,-26.927 -21.822,-48.756 -48.758,-48.756Z" style="fill:#161030;fill-rule:nonzero;"/><path d="M1874.4,466.954c-3.959,0 -7.828,0.454 -11.553,1.306c-13.189,-42.429 -47.792,-73.88 -89.611,-78.561c2.987,-8.374 4.661,-17.488 4.661,-27.035c0,-40.7 -29.907,-73.691 -66.795,-73.691c-0.612,0 -1.206,0.03 -1.799,0.047c13.873,-18.522 22.223,-42.282 22.223,-68.189c0,-59.153 -43.474,-107.105 -97.079,-107.105c-36.816,0 -68.846,22.61 -85.293,55.929c-15.331,-76.624 -77.249,-133.952 -151.295,-133.952c-80.399,0 -146.474,67.541 -154.193,153.995c-11.822,-17.681 -30.826,-29.16 -52.273,-29.16c-35.863,0 -64.934,32.076 -64.934,71.64c0,12.307 2.816,23.883 7.768,33.998c-6.583,-1.33 -13.363,-2.031 -20.292,-2.031c-59.095,0 -107.471,50.593 -111.503,114.663c-14.043,-16.766 -34.134,-27.27 -56.459,-27.27c-42.459,0 -76.879,37.974 -76.879,84.821c0,46.846 34.42,84.82 76.879,84.82c5.288,0 10.453,-0.59 15.439,-1.713c11.527,48.573 51.571,84.417 99.211,84.417c44.862,0 82.968,-31.79 96.887,-76.053c11.696,81.624 75.755,144.038 153.022,144.038c69.944,0 129.055,-51.134 148.309,-121.363c23.033,14.965 49.862,23.557 78.527,23.557c47.792,0 90.529,-23.884 118.96,-61.418c2.987,61.766 49.322,110.832 106.058,110.832c32.641,0 61.846,-16.266 81.334,-41.838c8.835,6.319 19.361,10.006 30.68,10.006c31.202,0 56.502,-27.915 56.502,-62.347c0,-34.431 -25.3,-62.343 -56.502,-62.343Z" style="fill:#161030;fill-rule:nonzero;"/><path d="M583.102,680.541c-4.107,0 -8.111,0.427 -11.977,1.228c-13.684,-39.894 -49.594,-69.466 -92.966,-73.868c3.106,-7.874 4.833,-16.443 4.833,-25.418c0,-38.271 -31.022,-69.291 -69.291,-69.291c-0.626,0 -1.241,0.028 -1.863,0.044c14.396,-17.416 23.048,-39.756 23.048,-64.116c0,-55.62 -45.088,-100.708 -100.707,-100.708c-38.191,0 -71.414,21.26 -88.487,52.589c-15.894,-72.047 -80.119,-125.951 -156.944,-125.951c-83.394,0 -151.948,63.506 -159.946,144.796c-12.266,-16.624 -31.988,-27.417 -54.235,-27.417c-37.203,0 -67.361,30.16 -67.361,67.361c0,11.571 2.922,22.456 8.059,31.966c-6.827,-1.25 -13.862,-1.909 -21.051,-1.909c-61.301,0 -111.487,47.57 -115.668,107.813c-14.57,-15.764 -35.411,-25.64 -58.569,-25.64c-44.048,0 -79.754,35.706 -79.754,79.754c0,44.048 35.706,79.753 79.754,79.753c5.484,0 10.842,-0.554 16.016,-1.611c11.956,45.672 53.497,79.375 102.917,79.375c46.538,0 86.069,-29.891 100.51,-71.51c12.133,76.748 78.581,135.435 158.744,135.435c72.556,0 133.874,-48.08 153.855,-114.114c23.886,14.071 51.724,22.15 81.452,22.15c49.585,0 93.919,-22.458 123.403,-57.75c3.106,58.077 51.173,104.211 110.022,104.211c33.87,0 64.157,-15.293 84.371,-39.338c9.17,5.942 20.095,9.408 31.835,9.408c32.372,0 58.619,-26.247 58.619,-58.623c0,-32.374 -26.247,-58.619 -58.619,-58.619Z" style="fill:#161030;fill-rule:nonzero;"/></g><path d="M1233.87,101.152c-0.609,0 -1.205,0.062 -1.786,0.182c-2.035,-5.946 -7.392,-10.355 -13.857,-11.012c0.471,-1.173 0.72,-2.451 0.72,-3.79c0,-5.704 -4.623,-10.329 -10.327,-10.329c-0.096,0 -0.18,0.005 -0.276,0.007c2.145,-2.596 3.433,-5.926 3.433,-9.557c0,-8.292 -6.714,-15.013 -15.006,-15.013c-5.703,0 -10.645,3.169 -13.192,7.839c-2.367,-10.74 -11.946,-18.776 -23.394,-18.776c-12.431,0 -22.661,9.467 -23.852,21.585c-1.827,-2.478 -4.762,-4.086 -8.084,-4.086c-5.551,0 -10.036,4.494 -10.036,10.041c0,1.725 0.429,3.347 1.205,4.765c-1.025,-0.187 -2.077,-0.284 -3.143,-0.284c-9.136,0 -16.625,7.09 -17.248,16.072c-2.173,-2.351 -5.274,-3.822 -8.735,-3.822c-6.561,0 -11.877,5.322 -11.877,11.889c0,6.566 5.316,11.887 11.877,11.887c0.817,0 1.62,-0.082 2.395,-0.238c1.786,6.806 7.974,11.831 15.338,11.831c6.935,0 12.832,-4.456 14.992,-10.66c1.799,11.441 11.711,20.19 23.657,20.19c10.811,0 19.961,-7.168 22.938,-17.012c3.557,2.097 7.71,3.302 12.14,3.302c7.392,0 14.008,-3.347 18.397,-8.608c0.47,8.658 7.627,15.535 16.403,15.535c5.053,0 9.566,-2.28 12.57,-5.864c1.37,0.886 3.003,1.401 4.748,1.401c4.831,0 8.748,-3.912 8.748,-8.738c0,-4.827 -3.917,-8.737 -8.748,-8.737Z" style="fill:#161030;fill-rule:nonzero;"/><path d="M413.055,95.603c-0.391,0 -0.771,0.039 -1.137,0.116c-1.298,-3.782 -4.702,-6.588 -8.815,-7.004c0.295,-0.747 0.458,-1.56 0.458,-2.412c0,-3.628 -2.942,-6.568 -6.571,-6.568c-0.058,0 -0.116,0.001 -0.175,0.003c1.366,-1.652 2.185,-3.768 2.185,-6.078c0,-5.275 -4.276,-9.549 -9.55,-9.549c-3.619,0 -6.772,2.016 -8.388,4.985c-1.509,-6.83 -7.598,-11.943 -14.885,-11.943c-7.906,0 -14.407,6.022 -15.165,13.732c-1.163,-1.578 -3.033,-2.601 -5.143,-2.601c-3.526,0 -6.388,2.86 -6.388,6.388c0,1.098 0.279,2.128 0.766,3.03c-0.648,-0.12 -1.314,-0.181 -1.996,-0.181c-5.813,0 -10.573,4.51 -10.968,10.223c-1.382,-1.495 -3.359,-2.432 -5.554,-2.432c-4.177,0 -7.562,3.386 -7.562,7.562c0,4.178 3.385,7.562 7.562,7.562c0.519,0 1.027,-0.052 1.52,-0.151c1.133,4.329 5.072,7.526 9.759,7.526c4.413,0 8.161,-2.835 9.529,-6.781c1.15,7.278 7.45,12.842 15.053,12.842c6.879,0 12.692,-4.56 14.588,-10.821c2.264,1.335 4.906,2.1 7.724,2.1c4.701,0 8.905,-2.128 11.701,-5.475c0.295,5.507 4.851,9.882 10.431,9.882c3.212,0 6.083,-1.452 8,-3.731c0.87,0.564 1.906,0.892 3.021,0.892c3.068,0 5.557,-2.488 5.557,-5.559c0,-3.069 -2.489,-5.557 -5.557,-5.557Z" style="fill:#161030;fill-rule:nonzero;"/><path d="M-291.245,145.973c1.716,0 3.389,0.176 5,0.515c5.722,-16.668 20.727,-29.029 38.844,-30.871c-1.293,-3.287 -2.008,-6.872 -2.008,-10.62c0,-15.994 12.957,-28.955 28.951,-28.955c0.257,0 0.515,0.014 0.772,0.021c-6.016,-7.28 -9.632,-16.614 -9.632,-26.791c0,-23.243 18.848,-42.084 42.087,-42.084c15.953,0 29.845,8.884 36.968,21.976c6.646,-30.105 33.488,-52.633 65.594,-52.633c34.842,0 63.488,26.54 66.83,60.509c5.126,-6.948 13.37,-11.461 22.663,-11.461c15.547,0 28.149,12.605 28.149,28.148c0,4.839 -1.219,9.386 -3.365,13.357c2.854,-0.521 5.792,-0.796 8.789,-0.796c25.619,0 46.597,19.878 48.337,45.053c6.091,-6.588 14.799,-10.715 24.478,-10.715c18.405,0 33.322,14.92 33.322,33.325c0,18.408 -14.917,33.322 -33.322,33.322c-2.288,0 -4.53,-0.231 -6.7,-0.667c-4.987,19.081 -22.345,33.166 -43.001,33.166c-19.451,0 -35.966,-12.493 -41.999,-29.882c-5.069,32.072 -32.835,56.595 -66.333,56.595c-30.318,0 -55.941,-20.094 -64.29,-47.688c-9.984,5.885 -21.624,9.257 -34.039,9.257c-20.721,0 -39.247,-9.382 -51.568,-24.133c-1.293,24.272 -21.377,43.553 -45.97,43.553c-14.152,0 -26.808,-6.396 -35.259,-16.441c-3.832,2.482 -8.393,3.928 -13.298,3.928c-13.533,0 -24.499,-10.967 -24.499,-24.496c0,-13.529 10.966,-24.492 24.499,-24.492Z" style="fill:#161030;fill-rule:nonzero;"/></g></g></g></g></svg>