<?xml version="1.0" encoding="UTF-8" standalone="no"?><!DOCTYPE svg PUBLIC "-//W3C//DTD SVG 1.1//EN" "http://www.w3.org/Graphics/SVG/1.1/DTD/svg11.dtd"><svg width="100%" height="100%" viewBox="0 0 1400 450" version="1.1" xmlns="http://www.w3.org/2000/svg" xmlns:xlink="http://www.w3.org/1999/xlink" xml:space="preserve" xmlns:serif="http://www.serif.com/" style="fill-rule:evenodd;clip-rule:evenodd;stroke-linejoin:round;stroke-miterlimit:1.41421;"><rect id="Artboard4" x="0" y="0" width="1400" height="450" style="fill:none;"/><clipPath id="_clip1"><rect x="0" y="0" width="1400" height="450"/></clipPath><g clip-path="url(#_clip1)"><g><rect x="0" y="-78" width="1400" height="933.338" style="fill:#171131;fill-rule:nonzero;"/><path d="M97.067,223.231c61.153,4.351 130.425,7.19 140.43,7.696c84.523,4.276 169.327,5.848 253.85,0.442c134.673,-8.614 265.137,-42.961 397.479,-66.739c164.814,-29.615 345.981,-40.647 511.174,-9.123l0,825.831l-1400,0c0,0 0,-771.79 0,-771.803c0,5.31 45.659,10.039 97.067,13.696Z" style="fill:#1a1534;fill-rule:nonzero;"/><path d="M1083.89,235.22c-69.048,33.552 -138.795,63.501 -214.559,67.081c-141.358,6.677 -289.918,-15.432 -419.411,-80.383c-73.435,-36.83 -147.897,-75.167 -227.865,-89.604c-37.222,-6.718 -75.806,-8.038 -113.233,-2.823c-11.872,1.656 -108.827,19.274 -108.827,34.274l0,762.573l1400,0l0,-794.272c-30.1,0.582 -60.443,3.408 -91.588,11.213c-78.324,16.432 -151.024,56.228 -224.517,91.941Z" style="fill:#1f1a38;fill-rule:nonzero;"/></g></g></svg>