<svg xmlns="http://www.w3.org/2000/svg" width="1440" height="900"><path d="M804,438L874,621L921,348Z" fill="#863654" stroke="#863654" stroke-width="1.51"/><path d="M874,621L1127,449L921,348Z" fill="#8c3855" stroke="#8c3855" stroke-width="1.51"/><path d="M804,438L769,593L874,621Z" fill="#893855" stroke="#893855" stroke-width="1.51"/><path d="M874,621L1134,597L1127,449Z" fill="#963b59" stroke="#963b59" stroke-width="1.51"/><path d="M874,621L1023,724L1134,597Z" fill="#9b3d5a" stroke="#9b3d5a" stroke-width="1.51"/><path d="M874,818L1023,724L874,621Z" fill="#9c3d5a" stroke="#9c3d5a" stroke-width="1.51"/><path d="M1134,597L1229,525L1127,449Z" fill="#9a3d59" stroke="#9a3d59" stroke-width="1.51"/><path d="M1356,728L1229,525L1134,597Z" fill="#a5405d" stroke="#a5405d" stroke-width="1.51"/><path d="M1127,449L1188,309L921,348Z" fill="#8a3755" stroke="#8a3755" stroke-width="1.51"/><path d="M1229,525L1188,309L1127,449Z" fill="#943b58" stroke="#943b58" stroke-width="1.51"/><path d="M705,753L874,818L874,621Z" fill="#973c59" stroke="#973c59" stroke-width="1.51"/><path d="M769,593L705,753L874,621Z" fill="#8f3956" stroke="#8f3956" stroke-width="1.51"/><path d="M518,409L624,645L769,593Z" fill="#803451" stroke="#803451" stroke-width="1.51"/><path d="M624,645L705,753L769,593Z" fill="#8b3855" stroke="#8b3855" stroke-width="1.51"/><path d="M921,348L671,135L804,438Z" fill="#77314f" stroke="#77314f" stroke-width="1.51"/><path d="M804,438L518,409L769,593Z" fill="#7e3351" stroke="#7e3351" stroke-width="1.51"/><path d="M1169,218L978,141L921,348Z" fill="#7e3351" stroke="#7e3351" stroke-width="1.51"/><path d="M1188,309L1169,218L921,348Z" fill="#863653" stroke="#863653" stroke-width="1.51"/><path d="M671,135L518,409L804,438Z" fill="#722f4d" stroke="#722f4d" stroke-width="1.51"/><path d="M1023,724L1210,827L1134,597Z" fill="#a6425d" stroke="#a6425d" stroke-width="1.51"/><path d="M1151,905L1210,827L1023,724Z" fill="#ad4460" stroke="#ad4460" stroke-width="1.51"/><path d="M794,63L671,135L921,348Z" fill="#6e2e4c" stroke="#6e2e4c" stroke-width="1.51"/><path d="M518,409L491,484L624,645Z" fill="#79314f" stroke="#79314f" stroke-width="1.51"/><path d="M489,853L693,881L705,753Z" fill="#943b58" stroke="#943b58" stroke-width="1.51"/><path d="M814,-6L794,63L978,141Z" fill="#6a2c4b" stroke="#6a2c4b" stroke-width="1.51"/><path d="M978,141L794,63L921,348Z" fill="#74304e" stroke="#74304e" stroke-width="1.51"/><path d="M705,753L693,881L874,818Z" fill="#9a3d5a" stroke="#9a3d5a" stroke-width="1.51"/><path d="M874,818L1151,905L1023,724Z" fill="#a8425e" stroke="#a8425e" stroke-width="1.51"/><path d="M489,853L705,753L624,645Z" fill="#8d3855" stroke="#8d3855" stroke-width="1.51"/><path d="M1169,218L1020,34L978,141Z" fill="#78314f" stroke="#78314f" stroke-width="1.51"/><path d="M831,977L1151,905L874,818Z" fill="#aa435f" stroke="#aa435f" stroke-width="1.51"/><path d="M1451,430L1334,164L1188,309Z" fill="#933b57" stroke="#933b57" stroke-width="1.51"/><path d="M1188,309L1334,164L1169,218Z" fill="#883754" stroke="#883754" stroke-width="1.51"/><path d="M1210,827L1356,728L1134,597Z" fill="#ac435f" stroke="#ac435f" stroke-width="1.51"/><path d="M1393,758L1356,728L1210,827Z" fill="#b44662" stroke="#b44662" stroke-width="1.51"/><path d="M693,881L831,977L874,818Z" fill="#a2405c" stroke="#a2405c" stroke-width="1.51"/><path d="M671,135L497,249L518,409Z" fill="#682b4a" stroke="#682b4a" stroke-width="1.51"/><path d="M283,449L338,543L491,484Z" fill="#6f2e4c" stroke="#6f2e4c" stroke-width="1.51"/><path d="M1020,34L814,-6L978,141Z" fill="#6d2d4b" stroke="#6d2d4b" stroke-width="1.51"/><path d="M794,63L597,52L671,135Z" fill="#622948" stroke="#622948" stroke-width="1.51"/><path d="M671,135L597,52L497,249Z" fill="#612948" stroke="#612948" stroke-width="1.51"/><path d="M1169,218L1271,39L1020,34Z" fill="#7b3250" stroke="#7b3250" stroke-width="1.51"/><path d="M1451,430L1188,309L1229,525Z" fill="#9a3d5a" stroke="#9a3d5a" stroke-width="1.51"/><path d="M1524,592L1451,430L1229,525Z" fill="#a6415d" stroke="#a6415d" stroke-width="1.51"/><path d="M1356,728L1524,592L1229,525Z" fill="#ac435f" stroke="#ac435f" stroke-width="1.51"/><path d="M1364,1039L1393,758L1210,827Z" fill="#bc4964" stroke="#bc4964" stroke-width="1.51"/><path d="M814,-6L597,52L794,63Z" fill="#612948" stroke="#612948" stroke-width="1.51"/><path d="M1334,164L1271,39L1169,218Z" fill="#833553" stroke="#833553" stroke-width="1.51"/><path d="M983,-278L737,-233L814,-6Z" fill="#582645" stroke="#582645" stroke-width="1.51"/><path d="M693,881L754,1066L831,977Z" fill="#a6415d" stroke="#a6415d" stroke-width="1.51"/><path d="M338,543L489,853L624,645Z" fill="#823552" stroke="#823552" stroke-width="1.51"/><path d="M1393,758L1524,592L1356,728Z" fill="#b54662" stroke="#b54662" stroke-width="1.51"/><path d="M1451,430L1467,199L1334,164Z" fill="#953b58" stroke="#953b58" stroke-width="1.51"/><path d="M491,484L338,543L624,645Z" fill="#79314f" stroke="#79314f" stroke-width="1.51"/><path d="M283,449L491,484L518,409Z" fill="#6e2e4c" stroke="#6e2e4c" stroke-width="1.51"/><path d="M371,260L518,409L497,249Z" fill="#662b4a" stroke="#662b4a" stroke-width="1.51"/><path d="M512,1146L754,1066L693,881Z" fill="#a4415d" stroke="#a4415d" stroke-width="1.51"/><path d="M831,977L910,1103L1151,905Z" fill="#b24561" stroke="#b24561" stroke-width="1.51"/><path d="M1705,417L1467,199L1451,430Z" fill="#a1405c" stroke="#a1405c" stroke-width="1.51"/><path d="M1334,164L1388,-42L1271,39Z" fill="#813452" stroke="#813452" stroke-width="1.51"/><path d="M754,1066L910,1103L831,977Z" fill="#af4460" stroke="#af4460" stroke-width="1.51"/><path d="M1151,905L1364,1039L1210,827Z" fill="#bc4864" stroke="#bc4864" stroke-width="1.51"/><path d="M314,28L371,260L497,249Z" fill="#5a2746" stroke="#5a2746" stroke-width="1.51"/><path d="M371,260L283,449L518,409Z" fill="#672b4a" stroke="#672b4a" stroke-width="1.51"/><path d="M338,543L263,649L489,853Z" fill="#7b3250" stroke="#7b3250" stroke-width="1.51"/><path d="M910,1103L1148,1117L1151,905Z" fill="#bb4964" stroke="#bb4964" stroke-width="1.51"/><path d="M1393,758L1588,666L1524,592Z" fill="#b74763" stroke="#b74763" stroke-width="1.51"/><path d="M1524,592L1705,417L1451,430Z" fill="#ac445f" stroke="#ac445f" stroke-width="1.51"/><path d="M1515,975L1588,666L1393,758Z" fill="#c04a66" stroke="#c04a66" stroke-width="1.51"/><path d="M1388,-42L1216,-137L1271,39Z" fill="#78314f" stroke="#78314f" stroke-width="1.51"/><path d="M1271,39L1216,-137L1020,34Z" fill="#74304e" stroke="#74304e" stroke-width="1.51"/><path d="M814,-6L594,-189L597,52Z" fill="#582645" stroke="#582645" stroke-width="1.51"/><path d="M163,558L263,649L338,543Z" fill="#702e4c" stroke="#702e4c" stroke-width="1.51"/><path d="M1148,1117L1364,1039L1151,905Z" fill="#c24b66" stroke="#c24b66" stroke-width="1.51"/><path d="M1467,199L1388,-42L1334,164Z" fill="#883754" stroke="#883754" stroke-width="1.51"/><path d="M1148,1117L1383,1071L1364,1039Z" fill="#ca4e68" stroke="#ca4e68" stroke-width="1.51"/><path d="M1364,1039L1515,975L1393,758Z" fill="#c64c67" stroke="#c64c67" stroke-width="1.51"/><path d="M597,52L314,28L497,249Z" fill="#592645" stroke="#592645" stroke-width="1.51"/><path d="M983,-278L814,-6L1020,34Z" fill="#632a48" stroke="#632a48" stroke-width="1.51"/><path d="M1383,1071L1515,975L1364,1039Z" fill="#cd4f69" stroke="#cd4f69" stroke-width="1.51"/><path d="M737,-233L594,-189L814,-6Z" fill="#542544" stroke="#542544" stroke-width="1.51"/><path d="M1467,199L1618,-24L1388,-42Z" fill="#883754" stroke="#883754" stroke-width="1.51"/><path d="M1711,505L1705,417L1524,592Z" fill="#b24661" stroke="#b24661" stroke-width="1.51"/><path d="M1711,505L1524,592L1588,666Z" fill="#b64762" stroke="#b64762" stroke-width="1.51"/><path d="M1216,-137L983,-278L1020,34Z" fill="#672b4a" stroke="#672b4a" stroke-width="1.51"/><path d="M1041,-297L983,-278L1216,-137Z" fill="#602948" stroke="#602948" stroke-width="1.51"/><path d="M1713,884L1711,505L1588,666Z" fill="#c14b66" stroke="#c14b66" stroke-width="1.51"/><path d="M377,-130L314,28L597,52Z" fill="#4e2342" stroke="#4e2342" stroke-width="1.51"/><path d="M371,260L107,440L283,449Z" fill="#612948" stroke="#612948" stroke-width="1.51"/><path d="M283,449L163,558L338,543Z" fill="#6b2c4b" stroke="#6b2c4b" stroke-width="1.51"/><path d="M107,440L163,558L283,449Z" fill="#652a49" stroke="#652a49" stroke-width="1.51"/><path d="M754,1066L512,1146L910,1103Z" fill="#ad4460" stroke="#ad4460" stroke-width="1.51"/><path d="M910,1103L512,1146L1148,1117Z" fill="#b64762" stroke="#b64762" stroke-width="1.51"/><path d="M489,853L512,1146L693,881Z" fill="#9a3d5a" stroke="#9a3d5a" stroke-width="1.51"/><path d="M352,1132L512,1146L489,853Z" fill="#9a3e5a" stroke="#9a3e5a" stroke-width="1.51"/><path d="M190,732L489,853L263,649Z" fill="#7d3351" stroke="#7d3351" stroke-width="1.51"/><path d="M163,558L190,732L263,649Z" fill="#712f4d" stroke="#712f4d" stroke-width="1.51"/><path d="M983,-278L1041,-297L737,-233Z" fill="#562544" stroke="#562544" stroke-width="1.51"/><path d="M1484,-259L1041,-297L1216,-137Z" fill="#682c4a" stroke="#682c4a" stroke-width="1.51"/><path d="M227,924L272,961L489,853Z" fill="#8a3755" stroke="#8a3755" stroke-width="1.51"/><path d="M190,732L227,924L489,853Z" fill="#833552" stroke="#833552" stroke-width="1.51"/><path d="M80,78L107,440L371,260Z" fill="#552544" stroke="#552544" stroke-width="1.51"/><path d="M163,558L-86,727L190,732Z" fill="#6d2d4c" stroke="#6d2d4c" stroke-width="1.51"/><path d="M58,978L206,1154L227,924Z" fill="#893755" stroke="#893755" stroke-width="1.51"/><path d="M314,28L226,42L371,260Z" fill="#512443" stroke="#512443" stroke-width="1.51"/><path d="M594,-189L377,-130L597,52Z" fill="#4e2342" stroke="#4e2342" stroke-width="1.51"/><path d="M150,-252L377,-130L594,-189Z" fill="#401e3d" stroke="#401e3d" stroke-width="1.51"/><path d="M377,-130L226,42L314,28Z" fill="#482040" stroke="#482040" stroke-width="1.51"/><path d="M1705,417L1725,178L1467,199Z" fill="#a03f5c" stroke="#a03f5c" stroke-width="1.51"/><path d="M1388,-42L1484,-259L1216,-137Z" fill="#74304e" stroke="#74304e" stroke-width="1.51"/><path d="M1711,505L1725,178L1705,417Z" fill="#ac435f" stroke="#ac435f" stroke-width="1.51"/><path d="M1725,178L1618,-24L1467,199Z" fill="#943b58" stroke="#943b58" stroke-width="1.51"/><path d="M272,961L352,1132L489,853Z" fill="#923a57" stroke="#923a57" stroke-width="1.51"/><path d="M206,1154L352,1132L272,961Z" fill="#943b58" stroke="#943b58" stroke-width="1.51"/><path d="M1711,505L1713,884L1725,178Z" fill="#b84863" stroke="#b84863" stroke-width="1.51"/><path d="M1515,975L1713,884L1588,666Z" fill="#ca4d68" stroke="#ca4d68" stroke-width="1.51"/><path d="M1695,1110L1713,884L1515,975Z" fill="#d7526c" stroke="#d7526c" stroke-width="1.51"/><path d="M80,78L26,436L107,440Z" fill="#532543" stroke="#532543" stroke-width="1.51"/><path d="M107,440L26,436L163,558Z" fill="#602847" stroke="#602847" stroke-width="1.51"/><path d="M1618,-24L1484,-259L1388,-42Z" fill="#7e3351" stroke="#7e3351" stroke-width="1.51"/><path d="M226,42L80,78L371,260Z" fill="#4e2342" stroke="#4e2342" stroke-width="1.51"/><path d="M54,35L80,78L226,42Z" fill="#441f3f" stroke="#441f3f" stroke-width="1.51"/><path d="M1383,1071L1695,1110L1515,975Z" fill="#d5516c" stroke="#d5516c" stroke-width="1.51"/><path d="M1148,1117L1695,1110L1383,1071Z" fill="#d2516b" stroke="#d2516b" stroke-width="1.51"/><path d="M512,1146L1695,1110L1148,1117Z" fill="#c44c67" stroke="#c44c67" stroke-width="1.51"/><path d="M58,978L227,924L190,732Z" fill="#7f3351" stroke="#7f3351" stroke-width="1.51"/><path d="M227,924L206,1154L272,961Z" fill="#8d3855" stroke="#8d3855" stroke-width="1.51"/><path d="M352,1132L206,1154L512,1146Z" fill="#9c3e5a" stroke="#9c3e5a" stroke-width="1.51"/><path d="M150,-252L54,35L226,42Z" fill="#3e1d3c" stroke="#3e1d3c" stroke-width="1.51"/><path d="M80,78L-91,112L26,436Z" fill="#492040" stroke="#492040" stroke-width="1.51"/><path d="M1618,-24L1653,-216L1484,-259Z" fill="#7e3451" stroke="#7e3451" stroke-width="1.51"/><path d="M1725,178L1653,-216L1618,-24Z" fill="#8d3956" stroke="#8d3956" stroke-width="1.51"/><path d="M-86,727L58,978L190,732Z" fill="#75304e" stroke="#75304e" stroke-width="1.51"/><path d="M-165,517L-68,535L26,436Z" fill="#592645" stroke="#592645" stroke-width="1.51"/><path d="M26,436L-68,535L163,558Z" fill="#5f2947" stroke="#5f2947" stroke-width="1.51"/><path d="M-68,535L-86,727L163,558Z" fill="#642a49" stroke="#642a49" stroke-width="1.51"/><path d="M377,-130L150,-252L226,42Z" fill="#3f1d3d" stroke="#3f1d3d" stroke-width="1.51"/><path d="M737,-233L150,-252L594,-189Z" fill="#431f3e" stroke="#431f3e" stroke-width="1.51"/><path d="M1041,-297L150,-252L737,-233Z" fill="#492140" stroke="#492140" stroke-width="1.51"/><path d="M54,35L-91,112L80,78Z" fill="#411e3d" stroke="#411e3d" stroke-width="1.51"/><path d="M-68,535L-165,517L-86,727Z" fill="#5e2846" stroke="#5e2846" stroke-width="1.51"/><path d="M-143,-70L-91,112L54,35Z" fill="#391b3b" stroke="#391b3b" stroke-width="1.51"/><path d="M-170,265L-165,517L26,436Z" fill="#512443" stroke="#512443" stroke-width="1.51"/><path d="M-281,1020L58,978L-86,727Z" fill="#742f4e" stroke="#742f4e" stroke-width="1.51"/><path d="M-281,1020L19,1110L58,978Z" fill="#7f3352" stroke="#7f3352" stroke-width="1.51"/><path d="M58,978L19,1110L206,1154Z" fill="#8a3755" stroke="#8a3755" stroke-width="1.51"/><path d="M-91,112L-170,265L26,436Z" fill="#492140" stroke="#492140" stroke-width="1.51"/><path d="M-91,112L-275,194L-170,265Z" fill="#3e1d3c" stroke="#3e1d3c" stroke-width="1.51"/><path d="M150,-252L-45,-149L54,35Z" fill="#351a3a" stroke="#351a3a" stroke-width="1.51"/><path d="M-165,517L-237,729L-86,727Z" fill="#5f2947" stroke="#5f2947" stroke-width="1.51"/><path d="M-275,194L-237,729L-165,517Z" fill="#502342" stroke="#502342" stroke-width="1.51"/><path d="M-170,265L-275,194L-165,517Z" fill="#47203f" stroke="#47203f" stroke-width="1.51"/><path d="M-45,-149L-143,-70L54,35Z" fill="#341a39" stroke="#341a39" stroke-width="1.51"/><path d="M-143,-70L-275,194L-91,112Z" fill="#371b3a" stroke="#371b3a" stroke-width="1.51"/><path d="M-143,-70L-143,-181L-275,194Z" fill="#301838" stroke="#301838" stroke-width="1.51"/><path d="M-45,-149L-143,-181L-143,-70Z" fill="#2c1736" stroke="#2c1736" stroke-width="1.51"/><path d="M150,-252L-143,-181L-45,-149Z" fill="#2d1737" stroke="#2d1737" stroke-width="1.51"/><path d="M-292,1007L-281,1020L-86,727Z" fill="#6e2e4c" stroke="#6e2e4c" stroke-width="1.51"/><path d="M-292,1007L-86,727L-237,729Z" fill="#682c4a" stroke="#682c4a" stroke-width="1.51"/><path d="M-275,194L-292,1007L-237,729Z" fill="#592745" stroke="#592745" stroke-width="1.51"/></svg>