<svg xmlns="http://www.w3.org/2000/svg" width="1440" height="900"><path d="M697,423L606,404L605,536Z" fill="#321938" stroke="#321938" stroke-width="1.51"/><path d="M605,536L811,565L697,423Z" fill="#331939" stroke="#331939" stroke-width="1.51"/><path d="M605,536L793,679L811,565Z" fill="#562544" stroke="#562544" stroke-width="1.51"/><path d="M697,423L750,218L606,404Z" fill="#4b2141" stroke="#4b2141" stroke-width="1.51"/><path d="M890,217L750,218L959,303Z" fill="#983c59" stroke="#983c59" stroke-width="1.51"/><path d="M340,381L457,709L605,536Z" fill="#893754" stroke="#893754" stroke-width="1.51"/><path d="M750,218L516,198L606,404Z" fill="#7d3350" stroke="#7d3350" stroke-width="1.51"/><path d="M605,536L457,709L793,679Z" fill="#843553" stroke="#843553" stroke-width="1.51"/><path d="M340,381L605,536L606,404Z" fill="#572645" stroke="#572645" stroke-width="1.51"/><path d="M516,198L340,381L606,404Z" fill="#8f3956" stroke="#8f3956" stroke-width="1.51"/><path d="M811,565L955,467L697,423Z" fill="#431f3e" stroke="#431f3e" stroke-width="1.51"/><path d="M953,666L955,467L811,565Z" fill="#7e3351" stroke="#7e3351" stroke-width="1.51"/><path d="M499,-23L388,143L516,198Z" fill="#a4405d" stroke="#a4405d" stroke-width="1.51"/><path d="M959,303L750,218L697,423Z" fill="#672b4a" stroke="#672b4a" stroke-width="1.51"/><path d="M955,467L959,303L697,423Z" fill="#582645" stroke="#582645" stroke-width="1.51"/><path d="M793,679L953,666L811,565Z" fill="#8c3855" stroke="#8c3855" stroke-width="1.51"/><path d="M955,467L1117,285L959,303Z" fill="#973c59" stroke="#973c59" stroke-width="1.51"/><path d="M822,1006L953,666L793,679Z" fill="#843553" stroke="#843553" stroke-width="1.51"/><path d="M340,381L260,601L457,709Z" fill="#a7425e" stroke="#a7425e" stroke-width="1.51"/><path d="M260,601L279,649L457,709Z" fill="#c84d68" stroke="#c84d68" stroke-width="1.51"/><path d="M516,198L388,143L340,381Z" fill="#ce4f69" stroke="#ce4f69" stroke-width="1.51"/><path d="M340,381L229,582L260,601Z" fill="#7d3351" stroke="#7d3351" stroke-width="1.51"/><path d="M666,32L516,198L750,218Z" fill="#7f3451" stroke="#7f3451" stroke-width="1.51"/><path d="M953,666L1060,522L955,467Z" fill="#923a57" stroke="#923a57" stroke-width="1.51"/><path d="M260,601L229,701L279,649Z" fill="#ae4460" stroke="#ae4460" stroke-width="1.51"/><path d="M191,286L229,582L340,381Z" fill="#662b49" stroke="#662b49" stroke-width="1.51"/><path d="M457,709L573,900L793,679Z" fill="#863653" stroke="#863653" stroke-width="1.51"/><path d="M365,834L573,900L457,709Z" fill="#9c3e5a" stroke="#9c3e5a" stroke-width="1.51"/><path d="M890,217L666,32L750,218Z" fill="#7a3250" stroke="#7a3250" stroke-width="1.51"/><path d="M279,649L365,834L457,709Z" fill="#db546d" stroke="#db546d" stroke-width="1.51"/><path d="M229,701L365,834L279,649Z" fill="#c34b66" stroke="#c34b66" stroke-width="1.51"/><path d="M229,582L229,701L260,601Z" fill="#9f3f5b" stroke="#9f3f5b" stroke-width="1.51"/><path d="M218,226L191,286L340,381Z" fill="#973c59" stroke="#973c59" stroke-width="1.51"/><path d="M229,582L-80,686L229,701Z" fill="#883654" stroke="#883654" stroke-width="1.51"/><path d="M953,666L1087,658L1060,522Z" fill="#bd4964" stroke="#bd4964" stroke-width="1.51"/><path d="M1053,974L1087,658L953,666Z" fill="#c34b67" stroke="#c34b67" stroke-width="1.51"/><path d="M388,143L218,226L340,381Z" fill="#c14b66" stroke="#c14b66" stroke-width="1.51"/><path d="M573,900L707,968L793,679Z" fill="#48213f" stroke="#48213f" stroke-width="1.51"/><path d="M727,1051L707,968L587,1177Z" fill="#241534" stroke="#241534" stroke-width="1.51"/><path d="M1216,482L1117,285L1060,522Z" fill="#712f4d" stroke="#712f4d" stroke-width="1.51"/><path d="M1060,522L1117,285L955,467Z" fill="#823553" stroke="#823553" stroke-width="1.51"/><path d="M959,303L1161,203L890,217Z" fill="#c64c67" stroke="#c64c67" stroke-width="1.51"/><path d="M890,217L864,-90L666,32Z" fill="#5a2646" stroke="#5a2646" stroke-width="1.51"/><path d="M388,143L378,-42L218,226Z" fill="#b34661" stroke="#b34661" stroke-width="1.51"/><path d="M666,32L499,-23L516,198Z" fill="#77314f" stroke="#77314f" stroke-width="1.51"/><path d="M707,968L822,1006L793,679Z" fill="#411e3d" stroke="#411e3d" stroke-width="1.51"/><path d="M499,-23L378,-42L388,143Z" fill="#903957" stroke="#903957" stroke-width="1.51"/><path d="M1087,658L1216,482L1060,522Z" fill="#983d59" stroke="#983d59" stroke-width="1.51"/><path d="M1117,285L1161,203L959,303Z" fill="#ca4e69" stroke="#ca4e69" stroke-width="1.51"/><path d="M1203,235L1161,203L1117,285Z" fill="#ba4864" stroke="#ba4864" stroke-width="1.51"/><path d="M707,968L727,1051L822,1006Z" fill="#201333" stroke="#201333" stroke-width="1.51"/><path d="M587,1177L707,968L573,900Z" fill="#341939" stroke="#341939" stroke-width="1.51"/><path d="M1093,-78L864,-90L890,217Z" fill="#76314e" stroke="#76314e" stroke-width="1.51"/><path d="M666,32L523,-133L499,-23Z" fill="#492040" stroke="#492040" stroke-width="1.51"/><path d="M499,-23L523,-133L378,-42Z" fill="#6a314e" stroke="#6a314e" stroke-width="1.51"/><path d="M935,-227L800,-184L864,-90Z" fill="#77536b" stroke="#77536b" stroke-width="1.51"/><path d="M1216,482L1203,235L1117,285Z" fill="#8b3755" stroke="#8b3755" stroke-width="1.51"/><path d="M800,-184L523,-133L666,32Z" fill="#3b2846" stroke="#3b2846" stroke-width="1.51"/><path d="M1053,974L1218,692L1087,658Z" fill="#b84763" stroke="#b84763" stroke-width="1.51"/><path d="M1087,658L1218,692L1216,482Z" fill="#a03f5c" stroke="#a03f5c" stroke-width="1.51"/><path d="M822,1006L1053,974L953,666Z" fill="#75304e" stroke="#75304e" stroke-width="1.51"/><path d="M984,1195L1053,974L822,1006Z" fill="#5c2846" stroke="#5c2846" stroke-width="1.51"/><path d="M1381,587L1310,449L1216,482Z" fill="#4c2241" stroke="#4c2241" stroke-width="1.51"/><path d="M1216,482L1310,449L1203,235Z" fill="#612947" stroke="#612947" stroke-width="1.51"/><path d="M1194,61L890,217L1161,203Z" fill="#d4516b" stroke="#d4516b" stroke-width="1.51"/><path d="M864,-90L800,-184L666,32Z" fill="#342241" stroke="#342241" stroke-width="1.51"/><path d="M365,834L356,1087L573,900Z" fill="#702f4d" stroke="#702f4d" stroke-width="1.51"/><path d="M227,1070L356,1087L365,834Z" fill="#6b2d4b" stroke="#6b2d4b" stroke-width="1.51"/><path d="M1203,235L1194,61L1161,203Z" fill="#b54662" stroke="#b54662" stroke-width="1.51"/><path d="M1382,140L1194,61L1203,235Z" fill="#943b58" stroke="#943b58" stroke-width="1.51"/><path d="M800,-184L398,-178L523,-133Z" fill="#76526a" stroke="#76526a" stroke-width="1.51"/><path d="M523,-133L398,-178L378,-42Z" fill="#8d4d66" stroke="#8d4d66" stroke-width="1.51"/><path d="M-69,104L191,286L218,226Z" fill="#943b58" stroke="#943b58" stroke-width="1.51"/><path d="M-55,304L-55,531L191,286Z" fill="#381c3b" stroke="#381c3b" stroke-width="1.51"/><path d="M229,701L86,912L365,834Z" fill="#883754" stroke="#883754" stroke-width="1.51"/><path d="M191,286L-55,531L229,582Z" fill="#381b3a" stroke="#381b3a" stroke-width="1.51"/><path d="M-55,304L191,286L-69,104Z" fill="#743250" stroke="#743250" stroke-width="1.51"/><path d="M-80,686L86,912L229,701Z" fill="#6f2e4c" stroke="#6f2e4c" stroke-width="1.51"/><path d="M727,1051L984,1195L822,1006Z" fill="#3c1c3c" stroke="#3c1c3c" stroke-width="1.51"/><path d="M356,1087L587,1177L573,900Z" fill="#572644" stroke="#572644" stroke-width="1.51"/><path d="M1194,61L1093,-78L890,217Z" fill="#af4460" stroke="#af4460" stroke-width="1.51"/><path d="M45,-7L218,226L112,-88Z" fill="#582644" stroke="#582644" stroke-width="1.51"/><path d="M356,1087L-13,1119L587,1177Z" fill="#692c4b" stroke="#692c4b" stroke-width="1.51"/><path d="M86,912L227,1070L365,834Z" fill="#552544" stroke="#552544" stroke-width="1.51"/><path d="M1218,692L1381,587L1216,482Z" fill="#77314f" stroke="#77314f" stroke-width="1.51"/><path d="M1310,449L1382,140L1203,235Z" fill="#7f3452" stroke="#7f3452" stroke-width="1.51"/><path d="M1393,714L1381,587L1218,692Z" fill="#863653" stroke="#863653" stroke-width="1.51"/><path d="M-55,531L-80,686L229,582Z" fill="#542544" stroke="#542544" stroke-width="1.51"/><path d="M-167,778L-80,686L-255,609Z" fill="#c3798a" stroke="#c3798a" stroke-width="1.51"/><path d="M1093,-78L935,-227L864,-90Z" fill="#864f66" stroke="#864f66" stroke-width="1.51"/><path d="M800,-184L935,-227L398,-178Z" fill="#564e68" stroke="#564e68" stroke-width="1.51"/><path d="M112,-88L218,226L378,-42Z" fill="#75304e" stroke="#75304e" stroke-width="1.51"/><path d="M131,-149L112,-88L378,-42Z" fill="#5e3451" stroke="#5e3451" stroke-width="1.51"/><path d="M1053,974L1322,842L1218,692Z" fill="#843553" stroke="#843553" stroke-width="1.51"/><path d="M1093,-78L1152,-114L935,-227Z" fill="#aa5e74" stroke="#aa5e74" stroke-width="1.51"/><path d="M1194,61L1152,-114L1093,-78Z" fill="#672b49" stroke="#672b49" stroke-width="1.51"/><path d="M1426,-94L1152,-114L1194,61Z" fill="#431f3e" stroke="#431f3e" stroke-width="1.51"/><path d="M1322,842L1393,714L1218,692Z" fill="#863653" stroke="#863653" stroke-width="1.51"/><path d="M1573,350L1434,435L1688,585Z" fill="#181131" stroke="#181131" stroke-width="1.51"/><path d="M1381,587L1434,435L1310,449Z" fill="#311838" stroke="#311838" stroke-width="1.51"/><path d="M-55,304L-253,424L-55,531Z" fill="#52435e" stroke="#52435e" stroke-width="1.51"/><path d="M45,-7L-69,104L218,226Z" fill="#602948" stroke="#602948" stroke-width="1.51"/><path d="M-215,74L-69,104L45,-7Z" fill="#67435d" stroke="#67435d" stroke-width="1.51"/><path d="M112,-88L-120,-273L45,-7Z" fill="#3a3451" stroke="#3a3451" stroke-width="1.51"/><path d="M398,-178L131,-149L378,-42Z" fill="#8a4e66" stroke="#8a4e66" stroke-width="1.51"/><path d="M1053,974L1324,1040L1322,842Z" fill="#4a2140" stroke="#4a2140" stroke-width="1.51"/><path d="M587,1177L984,1195L727,1051Z" fill="#241534" stroke="#241534" stroke-width="1.51"/><path d="M1434,435L1382,140L1310,449Z" fill="#4c2241" stroke="#4c2241" stroke-width="1.51"/><path d="M984,1195L1079,1166L1053,974Z" fill="#76304f" stroke="#76304f" stroke-width="1.51"/><path d="M-69,104L-169,216L-55,304Z" fill="#aa6075" stroke="#aa6075" stroke-width="1.51"/><path d="M-215,74L-169,216L-69,104Z" fill="#a1687c" stroke="#a1687c" stroke-width="1.51"/><path d="M-80,686L-104,889L86,912Z" fill="#5d3652" stroke="#5d3652" stroke-width="1.51"/><path d="M86,912L-13,1119L227,1070Z" fill="#2a1736" stroke="#2a1736" stroke-width="1.51"/><path d="M-167,778L-104,889L-80,686Z" fill="#8e5970" stroke="#8e5970" stroke-width="1.51"/><path d="M-255,609L-80,686L-55,531Z" fill="#905c72" stroke="#905c72" stroke-width="1.51"/><path d="M1079,1166L1324,1040L1053,974Z" fill="#622948" stroke="#622948" stroke-width="1.51"/><path d="M1322,842L1638,955L1393,714Z" fill="#451f3f" stroke="#451f3f" stroke-width="1.51"/><path d="M-169,216L-253,424L-55,304Z" fill="#8f6278" stroke="#8f6278" stroke-width="1.51"/><path d="M-167,778L-167,868L-104,889Z" fill="#7c586f" stroke="#7c586f" stroke-width="1.51"/><path d="M-104,889L-13,1119L86,912Z" fill="#221c3b" stroke="#221c3b" stroke-width="1.51"/><path d="M-255,609L-167,868L-167,778Z" fill="#b97b8c" stroke="#b97b8c" stroke-width="1.51"/><path d="M-253,424L-255,609L-55,531Z" fill="#7b6177" stroke="#7b6177" stroke-width="1.51"/><path d="M1324,1040L1382,1002L1322,842Z" fill="#2a1736" stroke="#2a1736" stroke-width="1.51"/><path d="M1688,585L1434,435L1381,587Z" fill="#3a1c3b" stroke="#3a1c3b" stroke-width="1.51"/><path d="M-256,1047L-13,1119L-104,889Z" fill="#453e5b" stroke="#453e5b" stroke-width="1.51"/><path d="M227,1070L-13,1119L356,1087Z" fill="#45203f" stroke="#45203f" stroke-width="1.51"/><path d="M1434,435L1573,350L1382,140Z" fill="#512343" stroke="#512343" stroke-width="1.51"/><path d="M1426,-94L1244,-280L1152,-114Z" fill="#714f68" stroke="#714f68" stroke-width="1.51"/><path d="M1666,658L1381,587L1393,714Z" fill="#6a2c4b" stroke="#6a2c4b" stroke-width="1.51"/><path d="M-120,-273L-215,74L45,-7Z" fill="#453e5a" stroke="#453e5a" stroke-width="1.51"/><path d="M-169,216L-215,74L-253,424Z" fill="#c68493" stroke="#c68493" stroke-width="1.51"/><path d="M1152,-114L1244,-280L935,-227Z" fill="#bd7a8b" stroke="#bd7a8b" stroke-width="1.51"/><path d="M935,-227L-120,-273L398,-178Z" fill="#ce8694" stroke="#ce8694" stroke-width="1.51"/><path d="M398,-178L-120,-273L131,-149Z" fill="#785c74" stroke="#785c74" stroke-width="1.51"/><path d="M1426,-94L1194,61L1382,140Z" fill="#4f2242" stroke="#4f2242" stroke-width="1.51"/><path d="M1577,35L1426,-94L1382,140Z" fill="#361a3a" stroke="#361a3a" stroke-width="1.51"/><path d="M1573,350L1585,187L1382,140Z" fill="#732f4e" stroke="#732f4e" stroke-width="1.51"/><path d="M1585,187L1577,35L1382,140Z" fill="#5c2846" stroke="#5c2846" stroke-width="1.51"/><path d="M1426,-94L1449,-189L1244,-280Z" fill="#5b4d67" stroke="#5b4d67" stroke-width="1.51"/><path d="M1638,955L1666,658L1393,714Z" fill="#5e2847" stroke="#5e2847" stroke-width="1.51"/><path d="M1573,350L1688,585L1585,187Z" fill="#361a3a" stroke="#361a3a" stroke-width="1.51"/><path d="M1585,187L1673,-273L1577,35Z" fill="#231534" stroke="#231534" stroke-width="1.51"/><path d="M1577,35L1449,-189L1426,-94Z" fill="#231d3c" stroke="#231d3c" stroke-width="1.51"/><path d="M1666,658L1688,585L1381,587Z" fill="#582645" stroke="#582645" stroke-width="1.51"/><path d="M131,-149L-120,-273L112,-88Z" fill="#4a425e" stroke="#4a425e" stroke-width="1.51"/><path d="M1244,-280L-120,-273L935,-227Z" fill="#7d6f84" stroke="#7d6f84" stroke-width="1.51"/><path d="M-167,868L-256,1047L-104,889Z" fill="#5c526b" stroke="#5c526b" stroke-width="1.51"/><path d="M-255,609L-256,1047L-167,868Z" fill="#997487" stroke="#997487" stroke-width="1.51"/><path d="M1382,1002L1638,955L1322,842Z" fill="#1d1332" stroke="#1d1332" stroke-width="1.51"/><path d="M1324,1040L1483,1140L1382,1002Z" fill="#191131" stroke="#191131" stroke-width="1.51"/><path d="M1079,1166L1483,1140L1324,1040Z" fill="#381b3a" stroke="#381b3a" stroke-width="1.51"/><path d="M984,1195L1483,1140L1079,1166Z" fill="#5a2745" stroke="#5a2745" stroke-width="1.51"/><path d="M1666,658L1668,1080L1688,585Z" fill="#5e2847" stroke="#5e2847" stroke-width="1.51"/><path d="M1483,1140L1638,955L1382,1002Z" fill="#151030" stroke="#151030" stroke-width="1.51"/><path d="M-120,-273L-295,-250L-215,74Z" fill="#908a9d" stroke="#908a9d" stroke-width="1.51"/><path d="M-215,74L-295,-250L-253,424Z" fill="#af8394" stroke="#af8394" stroke-width="1.51"/><path d="M-253,424L-295,-250L-255,609Z" fill="#d094a0" stroke="#d094a0" stroke-width="1.51"/><path d="M-255,609L-295,-250L-256,1047Z" fill="#7e7288" stroke="#7e7288" stroke-width="1.51"/><path d="M1638,955L1668,1080L1666,658Z" fill="#2c1736" stroke="#2c1736" stroke-width="1.51"/><path d="M1483,1140L1668,1080L1638,955Z" fill="#151030" stroke="#151030" stroke-width="1.51"/><path d="M1688,585L1673,-273L1585,187Z" fill="#6f2e4d" stroke="#6f2e4d" stroke-width="1.51"/><path d="M1577,35L1673,-273L1449,-189Z" fill="#3c3552" stroke="#3c3552" stroke-width="1.51"/><path d="M1449,-189L1673,-273L1244,-280Z" fill="#6a647c" stroke="#6a647c" stroke-width="1.51"/></svg>