<?xml version="1.0" standalone="no"?>
<!DOCTYPE svg PUBLIC "-//W3C//DTD SVG 20010904//EN"
 "http://www.w3.org/TR/2001/REC-SVG-20010904/DTD/svg10.dtd">
<svg version="1.0" xmlns="http://www.w3.org/2000/svg"
 width="260.000000pt" height="260.000000pt" viewBox="0 0 260.000000 260.000000"
 preserveAspectRatio="xMidYMid meet">
<metadata>
Created by potrace 1.11, written by Peter Selinger 2001-2013
</metadata>
<g transform="translate(0.000000,260.000000) scale(0.100000,-0.100000)"
fill="#000000" stroke="none">
<path d="M475 1828 c-168 -22 -301 -105 -391 -244 -119 -184 -105 -446 33
-614 144 -176 372 -245 578 -175 96 32 145 63 220 140 58 58 119 159 131 216
18 85 20 112 18 174 -3 74 -27 162 -64 233 -27 51 -130 159 -185 194 -94 59
-232 90 -340 76z"/>
<path d="M2068 1835 c-1 -2 -25 -4 -53 -6 -52 -2 -171 -40 -215 -67 -246 -154
-333 -445 -209 -700 36 -74 141 -185 213 -225 151 -84 340 -91 490 -17 270
132 377 443 249 718 -9 20 -19 39 -23 42 -3 3 -18 22 -33 42 -82 110 -218 191
-346 204 -26 3 -51 7 -58 9 -6 2 -13 2 -15 0z"/>
</g>
</svg>
